<svg width="891" height="940" viewBox="0 0 891 940" fill="none" xmlns="http://www.w3.org/2000/svg">
<g filter="url(#filter0_f_438_134)">
<path d="M127.24 371.178C127.919 329.063 169.28 300.264 196.491 274.296C204.186 266.602 204.964 252.947 207.192 242.923C209.628 231.962 217.987 222.63 223.543 212.632C244.955 174.099 260.347 124.416 313.353 125.005C357.956 125.501 404.018 159.379 437.91 185.106C467.456 207.534 497.514 226.402 528.921 246.117L530.727 247.25C559.142 265.088 586.717 280.423 619.455 289.441C662.875 301.401 730.86 311.096 752.548 357.716C771.541 398.54 766.549 452.372 760.844 495.467C756.32 529.641 749.317 578.932 725.377 606.413C701.514 633.804 671.647 650.22 636.768 659.422C615.893 664.929 591.084 664.749 572.927 676.851C554.426 689.182 539.365 702.489 524.354 718.801C509.26 735.205 500.256 754.616 488.166 773.133C458.73 818.215 406.73 826.129 361.445 800.539C345.439 791.494 326.512 788.411 309.987 780.585C280.992 766.854 252.235 754.276 221.258 745.125C185.305 734.505 154.184 715.808 140.104 679.736C129.117 651.587 126.183 619.32 125.196 589.224C124.451 566.528 125.421 551.752 135.415 531.768C149.64 503.324 156.556 480.716 149.362 449.069C146.23 435.291 137.189 423.137 132.65 409.523C128.331 396.569 127.021 384.75 127.24 371.178Z" fill="#0071BC" fill-opacity="0.35"/>
</g>
<defs>
<filter id="filter0_f_438_134" x="0" y="0" width="891" height="940" filterUnits="userSpaceOnUse" color-interpolation-filters="sRGB">
<feFlood flood-opacity="0" result="BackgroundImageFix"/>
<feBlend mode="normal" in="SourceGraphic" in2="BackgroundImageFix" result="shape"/>
<feGaussianBlur stdDeviation="62.5" result="effect1_foregroundBlur_438_134"/>
</filter>
</defs>
</svg>
